<?xml version="1.0" standalone="no"?>
<!DOCTYPE svg PUBLIC "-//W3C//DTD SVG 20010904//EN"
 "http://www.w3.org/TR/2001/REC-SVG-20010904/DTD/svg10.dtd">
<svg version="1.0" xmlns="http://www.w3.org/2000/svg"
 width="1210.000000pt" height="1280.000000pt" viewBox="0 0 1210.000000 1280.000000"
 preserveAspectRatio="xMidYMid meet">
<g transform="translate(0.000000,1280.000000) scale(0.100000,-0.100000)"
fill="#000000" stroke="none">
<path d="M5977 12777 c-3 -8 6 -135 19 -283 71 -803 85 -977 81 -989 -4 -9
-40 -15 -124 -19 -431 -23 -688 -52 -1028 -117 -781 -148 -1506 -446 -2145
-880 -1002 -681 -1773 -1707 -2183 -2904 -232 -679 -343 -1422 -308 -2067 12
-218 42 -506 62 -580 17 -64 -49 -112 633 462 186 157 343 286 349 288 7 1
284 -85 617 -193 333 -107 613 -195 622 -195 17 0 34 33 24 48 -2 4 -9 95 -16
202 -45 781 181 1594 618 2225 522 755 1329 1249 2311 1415 139 23 330 46 462
55 76 6 97 4 101 -6 3 -8 -4 -104 -14 -214 -84 -900 -116 -1260 -111 -1271 12
-32 49 -6 193 133 271 263 531 585 827 1026 291 435 564 947 683 1282 36 103
36 116 -11 263 -198 618 -839 1560 -1511 2220 -111 108 -140 127 -151 99z"/>
<path d="M8271 11021 c-11 -7 2 -111 78 -599 50 -325 91 -602 91 -616 0 -21
-84 -97 -490 -447 -311 -268 -490 -429 -488 -439 2 -8 73 -51 158 -96 260
-135 464 -271 679 -453 595 -501 1007 -1169 1165 -1891 147 -674 78 -1380
-206 -2090 -70 -174 -226 -490 -242 -490 -7 0 -280 198 -606 440 -326 242
-599 440 -607 440 -25 0 -25 -30 1 -163 142 -711 660 -1840 1129 -2462 139
-185 136 -183 263 -215 145 -37 260 -57 439 -75 631 -64 1530 11 2234 186 189
46 231 64 216 89 -4 7 -261 137 -570 290 -309 152 -565 283 -569 289 -4 6 19
60 52 119 427 771 676 1525 766 2317 53 466 44 978 -25 1434 -156 1031 -608
2022 -1295 2846 -568 679 -1286 1227 -2023 1540 -145 62 -132 58 -150 46z"/>
<path d="M1975 4939 c-226 -13 -456 -41 -607 -75 -65 -15 -70 -18 -151 -103
-441 -464 -985 -1619 -1187 -2521 -7 -30 -17 -63 -22 -73 -12 -22 8 -50 31
-44 9 2 247 169 529 371 283 201 518 364 522 361 5 -3 60 -83 123 -178 906
-1372 2185 -2258 3687 -2556 262 -52 397 -69 887 -111 151 -13 342 -13 470 -1
54 6 166 15 248 21 1026 78 2056 441 2840 1001 203 145 326 249 323 272 -3 18
-83 49 -581 223 -318 111 -581 204 -583 207 -3 3 -69 287 -147 632 -101 445
-147 631 -158 638 -12 8 -41 -8 -130 -71 -476 -336 -1034 -554 -1639 -639
-179 -25 -694 -25 -865 0 -532 78 -982 250 -1415 540 -394 264 -792 666 -1069
1081 -44 65 -51 80 -40 91 8 7 307 151 664 320 358 169 656 312 663 317 37 31
7 49 -161 98 -551 159 -1478 242 -2232 199z"/>
</g>
</svg>
